<svg id="Capa_1" enable-background="new 0 0 511.305 511.305" height="512" viewBox="0 0 511.305 511.305" width="512" xmlns="http://www.w3.org/2000/svg"><g><g><path d="m245.333 172.546c-126.361 20.121-162.776 86.687-162.776 86.687h173.096 173.096s-36.416-66.565-162.776-86.687c-6.833-1.088-13.809-1.088-20.64 0z" fill="#e19974"/></g><g><path d="m428.752 259.233h-27.04c-16.5-20.44-62.94-64.86-163.99-81-6.68-1.07-13.48-1.14-20.17-.23 8.74-2.06 17.99-3.9 27.78-5.46 6.83-1.08 13.81-1.08 20.64 0 126.36 20.12 162.78 86.69 162.78 86.69z" fill="#dc8758"/></g><g><path d="m491.333 456.926h-471.361c-6.888 0-12.472-5.584-12.472-12.472v-27.481c0-6.888 5.584-12.472 12.472-12.472h471.361c6.888 0 12.472 5.584 12.472 12.472v27.481c0 6.888-5.584 12.472-12.472 12.472z" fill="#fe5694"/></g><g><path d="m503.802 416.973v27.48c0 6.89-5.58 12.47-12.47 12.47h-19.59c6.89 0 12.47-5.58 12.47-12.47v-27.48c0-6.89-5.58-12.47-12.47-12.47h19.59c6.89 0 12.47 5.58 12.47 12.47z" fill="#fd3581"/></g><g><path d="m448.001 259.233h-384.697c-8.941 0-16.788 5.946-19.189 14.559-6.817 24.453-18.528 76.449-13.357 130.711h449.789c5.17-54.262-6.54-106.257-13.357-130.711-2.402-8.613-10.248-14.559-19.189-14.559z" fill="#fe93bb"/></g><g><path d="m480.542 404.503h-19.59c5.17-54.26-6.54-106.26-13.35-130.71-2.4-8.61-10.25-14.56-19.19-14.56h19.59c8.94 0 16.79 5.95 19.19 14.56 6.81 24.45 18.52 76.45 13.35 130.71z" fill="#fe76a8"/></g><g><path d="m329.351 331.867c14.969-4.561 15.426-27.202 14.926-36.766-.091-1.739-1.941-2.781-3.484-1.974-5.988 3.131-16.535 4.425-20.742 4.833-10.866 1.054-20.135 6.232-27.039 14.244-1.485 1.724-4.139 1.852-5.735.23-9.057-9.206-20.921-15.79-34.294-19.075-21.558-5.295-44.303-2.384-62.752 9.494-9.196 5.921-16.798 13.965-21.906 23.149-.015.026-.04.077-.076.149-1.781 3.598-1.78 7.836.001 11.434.035.071.061.122.075.148 5.108 9.185 12.71 17.228 21.906 23.149 18.449 11.878 41.194 14.79 62.752 9.494 13.372-3.285 25.237-9.869 34.294-19.075 1.596-1.622 4.25-1.493 5.735.23 6.904 8.012 16.173 13.19 27.039 14.243 4.207.408 14.755 1.702 20.742 4.833 1.543.807 3.393-.236 3.484-1.975.5-9.563.042-32.204-14.926-36.765z" fill="#fec165"/></g><g><path d="m344.272 368.633c-.09 1.74-1.94 2.78-3.48 1.98-4.52-2.37-11.64-3.69-16.67-4.37.18-7.554-.519-19.835-6.061-27.709-2.844-4.04-2.846-9.302-.001-13.342 5.548-7.877 6.241-20.16 6.062-27.71 5.03-.68 12.15-2 16.67-4.36 1.54-.8 3.39.24 3.48 1.98.5 9.56.05 32.2-14.92 36.76 14.97 4.561 15.42 27.211 14.92 36.771z" fill="#fdb441"/></g><g><path d="m236.395 331.865c0 15.672-6.38 29.853-16.682 40.092-10.427-1.609-20.471-5.273-29.484-11.075-9.194-5.92-16.793-13.965-21.906-23.152-.015-.027-.042-.08-.079-.155-1.777-3.596-1.777-7.823 0-11.419.037-.075.064-.128.079-.155 5.112-9.18 12.712-17.225 21.906-23.146 9.013-5.802 19.057-9.473 29.484-11.082 10.301 10.239 16.682 24.42 16.682 40.092z" fill="#f9f3f1"/></g><g><path d="m236.392 331.863c0 15.67-6.38 29.86-16.68 40.09-5.51-.85-10.92-2.27-16.11-4.29 7.99-9.74 12.79-22.21 12.79-35.8s-4.8-26.05-12.79-35.8c5.19-2.01 10.6-3.44 16.11-4.29 10.3 10.24 16.68 24.42 16.68 40.09z" fill="#f3eae6"/></g><g><path d="m351.767 294.711c-.177-3.377-2.033-6.391-4.966-8.063-2.938-1.675-6.483-1.737-9.483-.166-3.285 1.718-10.179 3.256-17.99 4.014-11.271 1.093-21.375 5.928-29.436 14.043-9.614-8.808-21.679-15.161-35.12-18.463-14.468-3.554-31.111-3.624-45.544.273.011.01.021.022.032.032-8.213 2.21-16.012 5.61-23.089 10.166-10.24 6.594-18.677 15.52-24.4 25.812-.061.109-.145.267-.243.466-2.803 5.663-2.803 12.425.014 18.115.105.21.184.358.229.439 5.725 10.293 14.162 19.217 24.4 25.809 7.822 5.037 16.528 8.658 25.698 10.821-.004.009-.008.018-.012.028-.142.495 19.498 2.347 20.542 2.347 7.419 0 14.941-.898 22.372-2.725 13.441-3.301 25.505-9.654 35.12-18.462 8.061 8.115 18.165 12.95 29.435 14.043 7.812.758 14.705 2.296 17.992 4.015 3.001 1.57 6.548 1.506 9.484-.169 2.932-1.673 4.787-4.686 4.964-8.061.865-16.559-2.416-29.405-9.213-37.157 6.798-7.753 10.079-20.6 9.214-37.157zm-176.888 34.936c.011-.02.023-.041.034-.061-.039.072-.071.127-.092.164.02-.034.039-.068.058-.103zm42.185 34.157c-8.167-1.713-15.899-4.802-22.773-9.228-8.13-5.235-14.817-12.275-19.343-20.365-.707-1.464-.71-3.197-.001-4.683 4.527-8.093 11.213-15.134 19.345-20.37 6.875-4.426 14.607-7.515 22.775-9.228 7.654 8.884 11.829 20.085 11.829 31.935-.001 11.852-4.176 23.052-11.832 31.939zm110.101-24.761c6.578 2.004 9.252 11.789 9.671 22.097-5.788-1.628-12.086-2.443-16.062-2.829-8.581-.832-16.217-4.869-22.081-11.675-2.084-2.418-5.109-3.865-8.3-3.971-3.157-.093-6.25 1.126-8.464 3.377-8.063 8.196-18.691 14.093-30.736 17.051-5.566 1.366-11.179 2.094-16.731 2.244 6.14-9.97 9.431-21.462 9.431-33.472 0-12.008-3.291-23.499-9.43-33.468 5.551.15 11.164.878 16.729 2.245 12.044 2.959 22.672 8.855 30.736 17.052 2.214 2.251 5.297 3.477 8.464 3.377 3.19-.105 6.216-1.553 8.3-3.971 5.864-6.806 13.5-10.843 22.082-11.675 3.976-.386 10.272-1.201 16.061-2.829-.419 10.308-3.093 20.094-9.671 22.098-3.157.962-5.314 3.875-5.314 7.175.001 3.3 2.158 6.212 5.315 7.174z"/><path d="m204.794 317.483c-2.761 0-5 2.238-5 5v6.954c0 2.762 2.239 5 5 5s5-2.238 5-5v-6.954c0-2.762-2.239-5-5-5z"/><path d="m491.333 397.002h-2.669c3.429-51.845-7.292-100.267-14.25-125.224-3.29-11.803-14.152-20.045-26.413-20.045h-15.123c-4.303-6.35-14.597-19.653-33.559-34.242-42.407-32.627-95.28-46.478-132.167-52.351-7.63-1.217-15.367-1.215-22.998 0-28.282 4.502-54.427 11.689-77.709 21.361-3.826 1.589-5.638 5.978-4.049 9.803s5.98 5.639 9.803 4.049c22.193-9.219 47.196-16.083 74.314-20.4 6.064-.965 12.215-.965 18.279 0 63.15 10.057 102.6 32.093 124.572 48.809 11.374 8.653 19.364 16.81 24.61 22.972h-316.721c8.609-10.032 23.214-23.649 44.318-36.139 3.564-2.109 4.744-6.709 2.635-10.273-2.11-3.564-6.709-4.746-10.274-2.635-33.422 19.778-49.78 40.58-55.509 49.047h-15.119c-12.262 0-23.124 8.243-26.413 20.045-6.957 24.957-17.678 73.378-14.25 125.224h-2.669c-11.013-.001-19.972 8.958-19.972 19.97v27.48c0 11.013 8.959 19.972 19.972 19.972h354.787c4.143 0 7.5-3.357 7.5-7.5s-3.357-7.5-7.5-7.5h-354.787c-2.741 0-4.972-2.23-4.972-4.972v-27.48c0-2.741 2.23-4.972 4.972-4.972h471.361c2.741 0 4.972 2.23 4.972 4.972v27.48c0 2.741-2.23 4.972-4.972 4.972h-81.475c-4.143 0-7.5 3.357-7.5 7.5s3.357 7.5 7.5 7.5h81.475c11.013 0 19.972-8.959 19.972-19.972v-27.48c0-11.012-8.959-19.971-19.972-19.971zm-17.692 0h-435.977c-3.492-49.99 6.935-97.019 13.676-121.196 1.489-5.342 6.409-9.072 11.964-9.072h384.697c5.555 0 10.475 3.73 11.964 9.073 6.741 24.177 17.168 71.205 13.676 121.195z"/><path d="m167.296 117.716c1.288 1.747 2.504 3.396 3.159 4.954.557 1.326.429 3.106-.342 4.762-.826 1.775-2.249 3.125-3.805 3.61-3.955 1.231-6.162 5.437-4.93 9.392 1.001 3.212 3.962 5.271 7.158 5.271.739 0 1.491-.11 2.233-.342 5.606-1.746 10.323-5.975 12.942-11.601 2.562-5.505 2.771-11.664.573-16.899-1.349-3.211-3.244-5.781-4.917-8.049-2.047-2.776-3.311-4.572-3.481-6.449-.19-2.095.584-5.428 3.497-6.023 4.059-.829 6.676-4.791 5.847-8.85s-4.794-6.674-8.85-5.846c-9.919 2.026-16.409 11.311-15.432 22.075.559 6.146 3.769 10.498 6.348 13.995z"/><path d="m249.62 83.102c1.288 1.747 2.504 3.396 3.159 4.955.557 1.326.429 3.106-.342 4.763-.826 1.774-2.248 3.123-3.803 3.607-3.955 1.232-6.163 5.437-4.931 9.392 1 3.212 3.962 5.271 7.158 5.271.739 0 1.49-.11 2.232-.341 5.606-1.746 10.324-5.974 12.942-11.6 2.563-5.505 2.771-11.664.573-16.9-1.349-3.211-3.244-5.782-4.917-8.05-2.047-2.775-3.31-4.572-3.48-6.448-.19-2.095.584-5.428 3.497-6.023 4.058-.829 6.676-4.791 5.846-8.85-.829-4.059-4.793-6.676-8.85-5.846-9.918 2.026-16.408 11.311-15.432 22.075.56 6.147 3.769 10.498 6.348 13.995z"/><path d="m331.945 117.717c1.287 1.746 2.504 3.396 3.158 4.953.557 1.326.429 3.106-.342 4.763-.826 1.775-2.248 3.124-3.805 3.609-3.954 1.231-6.161 5.437-4.929 9.392 1 3.212 3.962 5.271 7.158 5.271.738 0 1.49-.11 2.233-.342 5.605-1.746 10.322-5.975 12.941-11.601 2.562-5.505 2.771-11.664.572-16.899-1.349-3.211-3.244-5.781-4.916-8.049-2.048-2.775-3.311-4.572-3.48-6.45-.19-2.095.583-5.427 3.496-6.022 4.058-.829 6.676-4.791 5.846-8.85-.829-4.059-4.791-6.674-8.85-5.846-9.919 2.026-16.408 11.311-15.432 22.074.56 6.147 3.77 10.499 6.35 13.997z"/></g></g></svg>